<?xml version="1.0" encoding="utf-8"?>
<!-- Generator: Adobe Illustrator 25.2.1, SVG Export Plug-In . SVG Version: 6.00 Build 0)  -->
<svg version="1.1" id="Layer_1" xmlns="http://www.w3.org/2000/svg" xmlns:xlink="http://www.w3.org/1999/xlink" x="0px" y="0px"
	 viewBox="0 0 1066.1 824.2" style="enable-background:new 0 0 1066.1 824.2;" xml:space="preserve">
<style type="text/css">
	.st0{fill:#2F2E41;}
	.st1{fill:#FFB8B8;}
	.st2{opacity:0.2;enable-background:new    ;}
	.st3{fill:#3F3D56;}
	.st4{fill:url(#SVGID_1_);stroke:url(#SVGID_2_);stroke-width:0.75;stroke-miterlimit:10;}
	.st5{fill:url(#SVGID_3_);stroke:url(#SVGID_4_);stroke-width:0.75;stroke-miterlimit:10;}
	.st6{fill:url(#SVGID_5_);stroke:url(#SVGID_6_);stroke-width:0.75;stroke-miterlimit:10;}
	.st7{fill:#A0616A;}
	.st8{fill:url(#SVGID_7_);}
	.st9{opacity:0.1;enable-background:new    ;}
	.st10{fill:url(#SVGID_8_);}
	.st11{fill:url(#SVGID_9_);}
</style>
<image style="overflow:visible;" width="600" height="600" xlink:href="machine.png"  transform="matrix(1 0 0 1 219.4942 65.3176)">
</image>
<path class="st0" d="M346,257.3c-15.9-30.6-47.3-32-47.3-32s-30.6-4.5-50.2,42.1c-18.3,43.4-43.6,85.4-4.1,95.5l7.1-25.3l4.4,27.2
	c5.6,0.5,11.3,0.6,16.9,0.3c42.3-1.6,82.6,0.5,81.3-16.9C352.4,325.3,361.3,286.8,346,257.3z"/>
<path class="st1" d="M280.9,321.4c5.5,13.8,8.9,30.3,11,48.5l43.9-3.1c-10.1-16.3-13.5-35.1-9.6-56.4L280.9,321.4z"/>
<path class="st2" d="M280.9,321.4c5.5,13.8,8.9,30.3,11,48.5l43.9-3.1c-10.1-16.3-13.5-35.1-9.6-56.4L280.9,321.4z"/>
<path class="st1" d="M77.1,584.2c0,0-22.7,13.9-11.2,25.7s26.8-15.7,26.8-15.7L77.1,584.2z"/>
<polygon class="st0" points="355,543.7 354.6,562.6 353.9,603.6 353.9,603.6 353.7,615.5 208.3,615.5 214.2,578.1 214.2,578.1 
	219.5,544.6 221.9,529.6 221.9,529.6 341.3,510.8 "/>
<path class="st3" d="M355,543.7l-0.4,19c-42.2-1.2-107.7-12.9-135.1-18.1l2.4-15l119.4-18.8L355,543.7z"/>
<ellipse class="st1" cx="302.1" cy="295.5" rx="34.3" ry="39.1"/>
<linearGradient id="SVGID_1_" gradientUnits="userSpaceOnUse" x1="199.2085" y1="469.6012" x2="379.9363" y2="469.6012">
	<stop  offset="0" style="stop-color:#FFFFFF"/>
	<stop  offset="0" style="stop-color:#C7CFE5"/>
	<stop  offset="0" style="stop-color:#3B57A6"/>
	<stop  offset="0" style="stop-color:#00258B"/>
	<stop  offset="0.4396" style="stop-color:#1E7DBD"/>
	<stop  offset="1" style="stop-color:#45F2FF"/>
	<stop  offset="1" style="stop-color:#43E9F6"/>
	<stop  offset="1" style="stop-color:#36BEC8"/>
	<stop  offset="1" style="stop-color:#2A959D"/>
	<stop  offset="1" style="stop-color:#207177"/>
	<stop  offset="1" style="stop-color:#175257"/>
	<stop  offset="1" style="stop-color:#10383B"/>
	<stop  offset="1" style="stop-color:#0A2325"/>
	<stop  offset="1" style="stop-color:#061314"/>
	<stop  offset="1" style="stop-color:#020809"/>
	<stop  offset="1" style="stop-color:#010202"/>
	<stop  offset="1" style="stop-color:#000000"/>
</linearGradient>
<linearGradient id="SVGID_2_" gradientUnits="userSpaceOnUse" x1="198.8006" y1="469.6012" x2="380.3113" y2="469.6012">
	<stop  offset="0" style="stop-color:#FFFFFF"/>
	<stop  offset="1" style="stop-color:#000000"/>
</linearGradient>
<path class="st4" d="M368,564.8c0,0,4.1,42.3-20.6,39.1l-4.1-42.3l-22-25l-61.8-1.6l-45.3,48.5c0,0-1.4-50.1,4.1-54.8
	c5.5-4.7,17.8-15.7,17.8-15.7v-7.8l-37.1-86.1c0,0,22-51.7,39.8-53.2l23.3-1.6c0,0,8.2-4.7,8.2-6.3s-1.4-14.1,5.5-11
	c0,0,0.6-16.1,7.9-11.2c0,0,22.8,20.4,45.9,0.9c0,0,10.8-2.3,9.4,4c-1.4,6.3,0,11,2.7,11s15.1,4.7,15.1,7.8c0,0.7,0.9,7.2,2.3,16.9
	v0c5.1,35.6,16.9,114.6,16.9,114.6S388.6,511.6,368,564.8z"/>
<linearGradient id="SVGID_3_" gradientUnits="userSpaceOnUse" x1="64.7034" y1="510.7882" x2="245.8736" y2="510.7882">
	<stop  offset="0" style="stop-color:#FFFFFF"/>
	<stop  offset="0" style="stop-color:#C7CFE5"/>
	<stop  offset="0" style="stop-color:#3B57A6"/>
	<stop  offset="0" style="stop-color:#00258B"/>
	<stop  offset="0.4396" style="stop-color:#1E7DBD"/>
	<stop  offset="1" style="stop-color:#45F2FF"/>
	<stop  offset="1" style="stop-color:#43E9F6"/>
	<stop  offset="1" style="stop-color:#36BEC8"/>
	<stop  offset="1" style="stop-color:#2A959D"/>
	<stop  offset="1" style="stop-color:#207177"/>
	<stop  offset="1" style="stop-color:#175257"/>
	<stop  offset="1" style="stop-color:#10383B"/>
	<stop  offset="1" style="stop-color:#0A2325"/>
	<stop  offset="1" style="stop-color:#061314"/>
	<stop  offset="1" style="stop-color:#020809"/>
	<stop  offset="1" style="stop-color:#010202"/>
	<stop  offset="1" style="stop-color:#000000"/>
</linearGradient>
<linearGradient id="SVGID_4_" gradientUnits="userSpaceOnUse" x1="63.4811" y1="510.8886" x2="246.3346" y2="510.8886">
	<stop  offset="0" style="stop-color:#FFFFFF"/>
	<stop  offset="1" style="stop-color:#000000"/>
</linearGradient>
<path class="st5" d="M208.8,411.4l-9.6,7.8l-87.8,128.4l-46.7,42.3c0,0,26.1-4.7,20.6,20.4l160.6-104.9L208.8,411.4z"/>
<path class="st3" d="M359.3,376.6L359.3,376.6c-1.8,12.3-61.3,9.7-69.5,9.7s-15.1-1.6-23.3-7.8s-4.1-14.1-4.1-14.1s7-6.1,7-7.7
	s-1.4-14.1,5.5-11c0,0,0.6-16.1,7.9-11.2c0,0,24,21.7,47.1,2.3c0,0,10.8-2.3,9.4,4c-1.4,6.3,0,11,2.7,11s15.1,4.7,15.1,7.8
	C357,360.4,357.9,366.9,359.3,376.6z"/>
<path class="st1" d="M352.2,318.2c0,0-11-26.6-22-14.1c-11,12.5,12.4,31.3,12.4,31.3L352.2,318.2z"/>
<linearGradient id="SVGID_5_" gradientUnits="userSpaceOnUse" x1="330.0399" y1="401.2026" x2="412.9328" y2="401.2026">
	<stop  offset="0" style="stop-color:#FFFFFF"/>
	<stop  offset="0" style="stop-color:#C7CFE5"/>
	<stop  offset="0" style="stop-color:#3B57A6"/>
	<stop  offset="0" style="stop-color:#00258B"/>
	<stop  offset="0.4396" style="stop-color:#1E7DBD"/>
	<stop  offset="1" style="stop-color:#45F2FF"/>
	<stop  offset="1" style="stop-color:#43E9F6"/>
	<stop  offset="1" style="stop-color:#36BEC8"/>
	<stop  offset="1" style="stop-color:#2A959D"/>
	<stop  offset="1" style="stop-color:#207177"/>
	<stop  offset="1" style="stop-color:#175257"/>
	<stop  offset="1" style="stop-color:#10383B"/>
	<stop  offset="1" style="stop-color:#0A2325"/>
	<stop  offset="1" style="stop-color:#061314"/>
	<stop  offset="1" style="stop-color:#020809"/>
	<stop  offset="1" style="stop-color:#010202"/>
	<stop  offset="1" style="stop-color:#000000"/>
</linearGradient>
<linearGradient id="SVGID_6_" gradientUnits="userSpaceOnUse" x1="329.6021" y1="401.1324" x2="413.3078" y2="401.1324">
	<stop  offset="0" style="stop-color:#FFFFFF"/>
	<stop  offset="1" style="stop-color:#000000"/>
</linearGradient>
<path class="st6" d="M352.2,312c0,0-17,24.4-22.2,26.3c0,0,15.3,69.2,34.6,88l11,64.2c0,0,46.7-21.9,35.7-57.9
	c-0.1-0.4-0.2-0.7-0.3-1.1c-9.2-30-21.8-58.4-37.6-84.6L352.2,312z"/>
<polygon class="st2" points="343.2,384.5 376.9,490.4 364.6,426.3 "/>
<polygon class="st0" points="339,254.4 308,235.8 265.1,243.4 256.3,288.1 278.3,287.1 284.5,270.7 284.5,286.8 294.7,286.4 
	300.6,260.3 304.3,288.1 340.5,287.2 "/>
<path class="st7" d="M872.3,508.1l21.2,63.7c0,0-4.4,56.4,16,45.4c20.9-11.3,13.1-58.9,13.1-58.9l-12.2-57.1L872.3,508.1z"/>
<linearGradient id="SVGID_7_" gradientUnits="userSpaceOnUse" x1="863.0054" y1="415.2956" x2="919.0776" y2="415.2956">
	<stop  offset="0" style="stop-color:#FFFFFF"/>
	<stop  offset="0" style="stop-color:#C7CFE5"/>
	<stop  offset="0" style="stop-color:#3B57A6"/>
	<stop  offset="0" style="stop-color:#00258B"/>
	<stop  offset="0.4396" style="stop-color:#1E7DBD"/>
	<stop  offset="1" style="stop-color:#45F2FF"/>
	<stop  offset="1" style="stop-color:#43E9F6"/>
	<stop  offset="1" style="stop-color:#36BEC8"/>
	<stop  offset="1" style="stop-color:#2A959D"/>
	<stop  offset="1" style="stop-color:#207177"/>
	<stop  offset="1" style="stop-color:#175257"/>
	<stop  offset="1" style="stop-color:#10383B"/>
	<stop  offset="1" style="stop-color:#0A2325"/>
	<stop  offset="1" style="stop-color:#061314"/>
	<stop  offset="1" style="stop-color:#020809"/>
	<stop  offset="1" style="stop-color:#010202"/>
	<stop  offset="1" style="stop-color:#000000"/>
</linearGradient>
<path class="st8" d="M883.6,329.4l17.5,14.7v70.3c0,0,10.3,13,8.3,16.5c-2.1,3.5-4.1,3.5-2.1,6.1c2.1,2.6,4.1,4.3,2.1,6.1
	c-2.1,1.7-2.1,6.1,0,7.8c2.1,1.7,6.2,4.3,3.1,6.9c-3.1,2.6-7.2,0.9-3.1,10.4c4.1,9.5,11.3,12.1,9.3,15.6s-2.1,12.1-2.1,12.1
	l-44.4,5.2l-9.3-98L883.6,329.4z"/>
<polygon class="st3" points="918.7,495.1 867.1,496.8 869.2,515 914.6,508.1 "/>
<polygon class="st7" points="776.9,238.8 770.7,290.8 833.6,298.6 838.2,268.7 842.9,238.8 "/>
<polygon class="st9" points="776.9,238.5 770.7,290.5 833.6,298.4 838.2,268.4 842.9,238.5 "/>
<path class="st7" d="M640.2,486.4l35.1,63.3c0,0,6.2,29.5,15.5,30.4c9.3,0.9,18.6-30.4,18.6-30.4l-12.4-16.5l-14.4-46.8L640.2,486.4
	z"/>
<path class="st0" d="M880.3,615.6H682c1.6-20.9,2.6-33.8,2.6-33.8l2.6-3.5l12.8-16.9l9.1-12l3.2-4.2l1.2-1.6l12.5-1.9L854.8,522
	c2.1,8,5.1,15.9,9,23.4c0.9,1.7,1.8,3.4,2.8,5c3.2,5.3,7.2,10.4,11.9,14.1c1.1,0.8,1.8,3.1,2.3,6.6
	C882.1,579.5,881.7,595.3,880.3,615.6z"/>
<ellipse class="st7" cx="811.4" cy="214.1" rx="49.5" ry="41.6"/>
<linearGradient id="SVGID_8_" gradientUnits="userSpaceOnUse" x1="717.5428" y1="387.1065" x2="622.4305" y2="387.1065">
	<stop  offset="0" style="stop-color:#FFFFFF"/>
	<stop  offset="0" style="stop-color:#C7CFE5"/>
	<stop  offset="0" style="stop-color:#3B57A6"/>
	<stop  offset="0" style="stop-color:#00258B"/>
	<stop  offset="0.4396" style="stop-color:#1E7DBD"/>
	<stop  offset="1" style="stop-color:#45F2FF"/>
	<stop  offset="1" style="stop-color:#43E9F6"/>
	<stop  offset="1" style="stop-color:#36BEC8"/>
	<stop  offset="1" style="stop-color:#2A959D"/>
	<stop  offset="1" style="stop-color:#207177"/>
	<stop  offset="1" style="stop-color:#175257"/>
	<stop  offset="1" style="stop-color:#10383B"/>
	<stop  offset="1" style="stop-color:#0A2325"/>
	<stop  offset="1" style="stop-color:#061314"/>
	<stop  offset="1" style="stop-color:#020809"/>
	<stop  offset="1" style="stop-color:#010202"/>
	<stop  offset="1" style="stop-color:#000000"/>
</linearGradient>
<path class="st10" d="M701,299.1l-7.2-3.5c0,0-32,18.2-42.3,59c-10.3,40.8-17.5,51.2-17.5,51.2s-10.3,1.7-3.1,7.8s7.2,5.2,1,8.7
	c-6.2,3.5-10.3-3.5-6.2,3.5s9.3,5.2,5.2,9.5s-11.3,4.3-7.2,7.8c4.1,3.5-4.1,11.3,1,14.7c5.2,3.5,7.2,4.3,7.2,10.4
	c0,3.5,0.7,7.1,2.1,10.4h53.6c0,0-10.3-16.5-7.2-19.9s4.1-6.9,2.1-8.7c-2.1-1.7-8.3,1.7-2.1-2.6s8.3-1.7,6.2-6.9
	c-2.1-5.2-6.2-2.6-2.1-5.2s7.2-1.7,5.2-4.3c-2.1-2.6-6.2-2.6-2.1-4.3c4.1-1.7,7.2,0,6.2-4.3c-1-4.3-2.1-2.6,0-4.3
	c2.1-1.7,23.7-60.7,23.7-62.4C717.5,353.7,701,299.1,701,299.1z"/>
<polygon class="st3" points="690.7,475.1 625.7,478.6 642.2,491.6 687.6,492.5 "/>
<path class="st3" d="M709.3,540.2L695.9,561c0,0,40.2,4.3,54.7,8.7c14.4,4.3,51.6,10.4,51.6,10.4l9.3-30.4L709.3,540.2z"/>
<polygon class="st3" points="826.9,549.7 838.2,578.4 883.6,570.6 878.5,543.7 "/>
<linearGradient id="SVGID_9_" gradientUnits="userSpaceOnUse" x1="693.8149" y1="403.2471" x2="901.1765" y2="403.2471">
	<stop  offset="0" style="stop-color:#FFFFFF"/>
	<stop  offset="0" style="stop-color:#C7CFE5"/>
	<stop  offset="0" style="stop-color:#3B57A6"/>
	<stop  offset="0" style="stop-color:#00258B"/>
	<stop  offset="0.4396" style="stop-color:#1E7DBD"/>
	<stop  offset="1" style="stop-color:#45F2FF"/>
	<stop  offset="1" style="stop-color:#43E9F6"/>
	<stop  offset="1" style="stop-color:#36BEC8"/>
	<stop  offset="1" style="stop-color:#2A959D"/>
	<stop  offset="1" style="stop-color:#207177"/>
	<stop  offset="1" style="stop-color:#175257"/>
	<stop  offset="1" style="stop-color:#10383B"/>
	<stop  offset="1" style="stop-color:#0A2325"/>
	<stop  offset="1" style="stop-color:#061314"/>
	<stop  offset="1" style="stop-color:#020809"/>
	<stop  offset="1" style="stop-color:#010202"/>
	<stop  offset="1" style="stop-color:#000000"/>
</linearGradient>
<path class="st11" d="M845.5,269.6c0,0-3.1-1.7-10.3,1.7c-7.2,3.5-30.9,5.2-42.3-5.2c-11.3-10.4-19.6-19.1-22.7-17.3
	s-5.2,21.7-5.2,21.7l-10.3,6.9l-60.9,18.2l5.2,117.1l9.3,26.9c0,0-7.2,20.8,2.1,33s-5.2,16.5-5.2,16.5s-3.1,3.5-1,12.1
	c2.1,8.7-2.1,40.8-2.1,40.8s87.7,33,179.5,4.3l-10.3-33l-5.2-73.7c0,0,5.2-12.1,4.1-17.3c-1-5.2,30.9-78.1,30.9-78.1
	s-5.2-36.4-32-44.2s-30.9-15.6-30.9-15.6S850.6,273,845.5,269.6z"/>
<path class="st0" d="M761.6,219.4c0,0-5.1-6.5-3.2-13.5c1.2-4,1.6-8.1,1.4-12.1c0,0,4.2-11.3,8.3-17.6c4.2-6.3,2.2-9,15.2-11
	c13.1-2,7.7-16.3,42.1-0.8c2.4,2.8,6.5,4.1,10.5,3.3c7.1-1.2,9.7,7.2,9.7,7.2s4.7-2.3,6.5,1c1.8,3.3,14.5-2,14.5,20.5
	s-14.4,42.5-14.4,42.5s1.1-37.8-22.5-41.6c-23.5-3.8-48.9-15-55-0.7C768.6,210.8,761.6,219.4,761.6,219.4z"/>
<ellipse class="st7" cx="852.7" cy="223.2" rx="4.6" ry="5.2"/>
</svg>
